<svg version="1.1" id="Layer_1" xmlns="http://www.w3.org/2000/svg" xmlns:xlink="http://www.w3.org/1999/xlink" x="0px" y="0px" width="100%" viewBox="0 0 320 320" enable-background="new 0 0 320 320" xml:space="preserve">
	<path
		fill="#000000"
		opacity="1.000000"
		stroke="none"
		d="
M146.000000,321.000000 
	C97.333344,321.000000 49.166683,321.000000 1.000019,321.000000 
	C1.000013,214.333359 1.000013,107.666725 1.000006,1.000062 
	C107.666618,1.000041 214.333237,1.000041 320.999878,1.000021 
	C320.999939,107.666603 320.999939,214.333206 320.999969,320.999908 
	C262.833344,321.000000 204.666672,321.000000 146.000000,321.000000 
M266.888824,201.237991 
	C266.835449,200.959747 266.782104,200.681488 266.218048,200.136490 
	C265.616333,199.147537 265.014587,198.158585 265.096008,196.860397 
	C267.720306,193.259109 270.344604,189.657822 272.968903,186.056534 
	C272.725952,185.643906 272.483032,185.231277 272.240082,184.818665 
	C268.246399,186.502670 264.252686,188.186691 260.773102,189.653931 
	C259.624115,186.669952 259.435150,184.381149 258.274231,183.662582 
	C257.079010,182.922791 254.870712,183.471283 253.230347,183.915955 
	C252.044403,184.237411 251.062225,185.310455 249.182602,186.049149 
	C248.115128,185.950089 247.047638,185.851013 245.818314,185.489380 
	C245.529739,185.277496 245.273438,185.321701 244.326859,185.692856 
	C243.846558,185.643173 243.366257,185.593491 242.388397,185.201324 
	C241.268814,185.404617 240.149231,185.607895 238.515717,185.926712 
	C238.340652,185.913116 238.165604,185.899536 237.756790,185.490112 
	C237.552353,185.248383 237.298157,185.083313 236.983353,184.255569 
	C234.038635,178.932877 228.750244,177.376862 225.322540,180.774918 
	C227.544113,182.179443 229.774460,183.589508 231.564301,185.535507 
	C229.455246,186.043564 227.346191,186.551605 224.954727,187.127670 
	C224.954727,189.036850 224.954727,190.996323 224.164307,192.981003 
	C222.632782,193.175507 221.101257,193.370010 219.198288,193.611694 
	C219.789459,195.475464 220.178558,196.702194 220.554825,197.888458 
	C218.563950,198.585678 216.918747,199.161835 215.273544,199.737976 
	C216.137207,201.230637 216.976547,202.738174 217.875488,204.209274 
	C218.284485,204.878632 218.811340,205.475967 219.222733,206.746185 
	C219.118195,207.161499 219.013657,207.576813 218.171387,208.090454 
	C215.210938,209.012726 214.116440,210.605743 215.735291,213.672928 
	C216.847916,215.780991 217.842621,218.059937 218.298996,220.378830 
	C218.902832,223.446960 219.094177,226.391556 223.772491,224.095261 
	C224.164932,224.410690 224.557373,224.726135 224.995361,225.469025 
	C224.995361,225.469025 225.044083,225.896118 225.015503,226.638779 
	C224.836075,229.085083 225.404388,230.500961 228.563721,229.023529 
	C228.842178,229.138382 229.039978,229.334549 229.075455,230.395920 
	C230.842606,237.828476 236.214127,239.634659 243.292206,239.333557 
	C243.432800,237.984177 243.572174,236.646378 243.711563,235.308578 
	C243.976044,235.684357 244.240524,236.060135 244.505005,236.435928 
	C246.989105,235.244629 249.473206,234.053345 252.310501,232.390442 
	C252.878601,232.261902 253.446716,232.133362 254.478439,232.415466 
	C253.644028,233.949341 252.809616,235.483215 251.653717,237.608063 
	C257.231903,238.602448 258.001251,230.318924 263.306976,232.637787 
	C263.516846,232.729507 264.303619,231.865799 264.575195,231.323822 
	C264.756836,230.961319 264.546143,230.369583 264.435333,229.898224 
	C263.445038,225.685944 266.221863,224.396103 269.390900,224.406448 
	C272.500183,224.416580 273.086823,223.023926 273.005859,220.505371 
	C272.954742,218.915741 272.996307,217.323135 272.996307,215.731857 
	C272.532776,215.983109 272.069244,216.234360 271.605713,216.485626 
	C270.287720,215.609207 268.969696,214.732788 267.705139,213.224899 
	C267.820709,212.818817 267.936279,212.412750 268.717438,211.892868 
	C269.881500,208.854660 271.045532,205.816467 272.470367,202.097580 
	C269.766602,202.097580 268.331024,202.097580 266.917908,202.070770 
	C266.917908,202.070770 266.929596,202.086960 266.888824,201.237991 
M94.685455,231.388351 
	C113.813896,230.935394 133.076340,231.737061 152.036865,229.711975 
	C175.753983,227.178864 193.753693,214.645233 203.505569,192.226822 
	C210.524017,176.092270 211.339676,159.040298 209.149231,141.757156 
	C205.370361,111.941147 184.432114,90.508942 154.348236,88.179550 
	C132.488785,86.486977 110.441597,87.217720 88.477798,86.889763 
	C88.202614,86.885651 87.923141,87.169891 87.515862,87.389534 
	C87.515862,135.210541 87.515862,183.087311 87.515862,231.388321 
	C89.812012,231.388321 91.777626,231.388321 94.685455,231.388351 
z" />
	<path
		fill="#FDFDFD"
		opacity="1.000000"
		stroke="none"
		d="
M94.214340,231.388336 
	C91.777626,231.388321 89.812012,231.388321 87.515862,231.388321 
	C87.515862,183.087311 87.515862,135.210541 87.515862,87.389534 
	C87.923141,87.169891 88.202614,86.885651 88.477798,86.889763 
	C110.441597,87.217720 132.488785,86.486977 154.348236,88.179550 
	C184.432114,90.508942 205.370361,111.941147 209.149231,141.757156 
	C211.339676,159.040298 210.524017,176.092270 203.505569,192.226822 
	C193.753693,214.645233 175.753983,227.178864 152.036865,229.711975 
	C133.076340,231.737061 113.813896,230.935394 94.214340,231.388336 
M126.375641,123.770386 
	C126.375641,148.820206 126.375641,173.870010 126.375641,198.844788 
	C132.140549,198.844788 137.339493,199.368362 142.396606,198.743744 
	C155.985672,197.065338 164.217957,189.032791 167.420700,175.880585 
	C170.255875,164.237793 170.390533,152.441910 167.754272,140.787582 
	C165.113510,129.113266 158.115753,121.129272 145.908829,119.140335 
	C139.739151,118.135078 133.379486,118.295784 126.714981,117.906494 
	C126.575348,119.941345 126.475975,121.389465 126.375641,123.770386 
z" />
	<path
		fill="#060C06"
		opacity="1.000000"
		stroke="none"
		d="
M267.651703,213.856384 
	C268.969696,214.732788 270.287720,215.609207 271.605713,216.485626 
	C272.069244,216.234360 272.532776,215.983109 272.996307,215.731857 
	C272.996307,217.323135 272.954742,218.915741 273.005859,220.505371 
	C273.086823,223.023926 272.500183,224.416580 269.390900,224.406448 
	C266.221863,224.396103 263.445038,225.685944 264.435333,229.898224 
	C264.546143,230.369583 264.756836,230.961319 264.575195,231.323822 
	C264.303619,231.865799 263.516846,232.729507 263.306976,232.637787 
	C258.001251,230.318924 257.231903,238.602448 251.653717,237.608063 
	C252.809616,235.483215 253.644028,233.949341 254.457199,231.955414 
	C256.649597,229.689499 258.863220,227.883652 261.316040,225.993835 
	C261.730713,225.633530 261.906189,225.357162 262.366638,224.895905 
	C263.845856,222.210297 265.040039,219.709564 266.489746,216.986267 
	C266.843384,215.870270 266.941528,214.976852 267.186401,214.009735 
	C267.333130,213.936050 267.651703,213.856369 267.651703,213.856384 
z" />
	<path
		fill="#060C06"
		opacity="1.000000"
		stroke="none"
		d="
M249.989166,186.048325 
	C251.062225,185.310455 252.044403,184.237411 253.230347,183.915955 
	C254.870712,183.471283 257.079010,182.922791 258.274231,183.662582 
	C259.435150,184.381149 259.624115,186.669952 260.773102,189.653931 
	C264.252686,188.186691 268.246399,186.502670 272.240082,184.818665 
	C272.483032,185.231277 272.725952,185.643906 272.968903,186.056534 
	C270.344604,189.657822 267.720306,193.259109 264.565552,196.847260 
	C263.566132,196.348114 263.097198,195.862106 262.528076,195.130188 
	C262.024445,194.544357 261.620972,194.204468 261.102295,193.544098 
	C257.321075,190.831863 253.655121,188.440094 249.989166,186.048325 
z" />
	<path
		fill="#86AA4D"
		opacity="1.000000"
		stroke="none"
		d="
M261.076843,226.077789 
	C258.863220,227.883652 256.649597,229.689499 254.225388,231.750092 
	C253.446716,232.133362 252.878601,232.261902 251.716064,232.665619 
	C243.286560,235.219925 235.994522,233.915955 229.157135,229.612030 
	C229.039978,229.334549 228.842178,229.138382 228.228088,228.681488 
	C226.942993,227.525009 225.993530,226.710571 225.044083,225.896118 
	C225.044083,225.896118 224.995361,225.469025 225.024139,225.218414 
	C225.052902,224.967804 225.145630,224.881348 225.514709,224.912964 
	C227.586441,225.795563 229.487640,226.393768 230.954086,227.545486 
	C235.167099,230.854294 239.618622,233.171463 245.089828,231.430481 
	C250.416367,229.735519 255.652786,227.757355 260.964294,225.948395 
	C260.999786,225.993240 261.076843,226.077789 261.076843,226.077789 
z" />
	<path
		fill="#060C06"
		opacity="1.000000"
		stroke="none"
		d="
M229.116302,230.003967 
	C235.994522,233.915955 243.286560,235.219925 251.539459,232.901428 
	C249.473206,234.053345 246.989105,235.244629 244.505005,236.435928 
	C244.240524,236.060135 243.976044,235.684357 243.711563,235.308578 
	C243.572174,236.646378 243.432800,237.984177 243.292206,239.333557 
	C236.214127,239.634659 230.842606,237.828476 229.116302,230.003967 
z" />
	<path
		fill="#88AD47"
		opacity="1.000000"
		stroke="none"
		d="
M249.585876,186.048737 
	C253.655121,188.440094 257.321075,190.831863 261.032501,193.583191 
	C261.077972,193.942764 260.948730,194.037064 260.643982,194.066467 
	C259.191772,194.054214 257.729675,194.444839 256.959839,193.884460 
	C255.136749,192.557388 253.878403,189.823425 251.973053,189.352615 
	C244.762314,187.570801 237.295074,185.792175 230.696503,192.122192 
	C229.596695,192.499664 228.791275,192.748550 227.967026,192.674118 
	C227.924393,192.136200 227.900589,191.921616 228.053650,191.424271 
	C231.483856,189.389648 234.737198,187.637802 237.990540,185.885956 
	C238.165604,185.899536 238.340652,185.913116 239.159241,185.937805 
	C240.830490,185.813858 241.858231,185.678818 242.885956,185.543793 
	C243.366257,185.593491 243.846558,185.643173 244.912048,185.752411 
	C245.497253,185.811951 245.980164,185.751953 245.980164,185.751953 
	C247.047638,185.851013 248.115128,185.950089 249.585876,186.048737 
z" />
	<path
		fill="#83A648"
		opacity="1.000000"
		stroke="none"
		d="
M225.001343,225.004700 
	C224.557373,224.726135 224.164932,224.410690 223.443405,223.608093 
	C221.712585,218.078003 220.310852,213.035065 218.909119,207.992126 
	C219.013657,207.576813 219.118195,207.161499 219.474640,206.145935 
	C221.457260,201.941132 223.187973,198.336578 224.952682,195.139282 
	C224.638214,197.347748 224.289764,199.148926 223.613998,201.154251 
	C221.745041,206.134171 220.000351,210.808121 222.356064,215.940231 
	C223.647827,218.754486 224.238708,221.890442 225.145630,224.881348 
	C225.145630,224.881348 225.052902,224.967804 225.001343,225.004700 
z" />
	<path
		fill="#060C06"
		opacity="1.000000"
		stroke="none"
		d="
M224.918671,194.732010 
	C223.187973,198.336578 221.457260,201.941132 219.505646,205.825836 
	C218.811340,205.475967 218.284485,204.878632 217.875488,204.209274 
	C216.976547,202.738174 216.137207,201.230637 215.273544,199.737976 
	C216.918747,199.161835 218.563950,198.585678 220.554825,197.888458 
	C220.178558,196.702194 219.789459,195.475464 219.198288,193.611694 
	C221.101257,193.370010 222.632782,193.175507 224.661636,193.067535 
	C225.158966,193.154083 225.362198,193.351501 225.386414,193.485413 
	C225.410645,193.619308 225.569916,193.840851 225.362915,194.031357 
	C225.076859,194.391907 224.997772,194.561951 224.918671,194.732010 
z" />
	<path
		fill="#060C06"
		opacity="1.000000"
		stroke="none"
		d="
M218.540253,208.041290 
	C220.310852,213.035065 221.712585,218.078003 223.227631,223.466965 
	C219.094177,226.391556 218.902832,223.446960 218.298996,220.378830 
	C217.842621,218.059937 216.847916,215.780991 215.735291,213.672928 
	C214.116440,210.605743 215.210938,209.012726 218.540253,208.041290 
z" />
	<path
		fill="#03000C"
		opacity="1.000000"
		stroke="none"
		d="
M232.004807,184.999588 
	C229.774460,183.589508 227.544113,182.179443 225.322540,180.774918 
	C228.750244,177.376862 234.038635,178.932877 236.573090,184.626251 
	C234.776810,184.997833 233.390808,184.998703 232.004807,184.999588 
z" />
	<path
		fill="#060C06"
		opacity="1.000000"
		stroke="none"
		d="
M231.784546,185.267548 
	C233.390808,184.998703 234.776810,184.997833 236.578491,184.995911 
	C237.298157,185.083313 237.552353,185.248383 237.873657,185.688034 
	C234.737198,187.637802 231.483856,189.389648 227.798584,191.514679 
	C227.057098,192.283630 226.747528,192.679398 226.268768,193.154572 
	C226.099594,193.233994 225.919846,193.561737 225.791870,193.478836 
	C225.663895,193.395935 225.362198,193.351501 225.362198,193.351501 
	C225.362198,193.351501 225.158966,193.154083 225.056854,193.054932 
	C224.954727,190.996323 224.954727,189.036850 224.954727,187.127670 
	C227.346191,186.551605 229.455246,186.043564 231.784546,185.267548 
z" />
	<path
		fill="#060C06"
		opacity="1.000000"
		stroke="none"
		d="
M266.895416,202.097580 
	C268.331024,202.097580 269.766602,202.097580 272.470367,202.097580 
	C271.045532,205.816467 269.881500,208.854660 268.324036,211.548492 
	C267.706360,209.633026 267.482086,208.061951 267.266968,206.372589 
	C267.276062,206.254288 267.097839,206.090179 267.105927,205.737076 
	C267.020691,204.924347 266.927338,204.464706 266.872467,203.688202 
	C266.905762,202.946747 266.900574,202.522156 266.895416,202.097580 
z" />
	<path
		fill="#84A44C"
		opacity="1.000000"
		stroke="none"
		d="
M266.906677,202.084167 
	C266.900574,202.522156 266.905762,202.946747 266.651794,203.689697 
	C266.392700,204.008072 265.951599,204.022308 265.684753,203.814728 
	C264.270111,201.077072 263.122284,198.546997 262.145508,195.864410 
	C262.316498,195.711914 262.628265,195.376099 262.628265,195.376099 
	C263.097198,195.862106 263.566132,196.348114 264.223969,197.001892 
	C265.014587,198.158585 265.616333,199.147537 266.267731,200.445251 
	C266.521484,201.198334 266.725525,201.642654 266.929596,202.086960 
	C266.929596,202.086960 266.917908,202.070770 266.906677,202.084167 
z" />
	<path
		fill="#060C06"
		opacity="1.000000"
		stroke="none"
		d="
M225.029785,226.267456 
	C225.993530,226.710571 226.942993,227.525009 228.021927,228.626877 
	C225.404388,230.500961 224.836075,229.085083 225.029785,226.267456 
z" />
	<path
		fill="#84A44C"
		opacity="1.000000"
		stroke="none"
		d="
M267.257812,206.490875 
	C267.482086,208.061951 267.706360,209.633026 267.991211,211.605377 
	C267.936279,212.412750 267.820709,212.818817 267.678406,213.540634 
	C267.651703,213.856369 267.333130,213.936050 267.168457,213.613098 
	C266.976196,212.499741 266.948639,211.709335 266.923157,210.613785 
	C266.924316,209.900070 266.923340,209.491486 266.937805,208.794281 
	C266.942596,208.313232 266.931915,208.120819 266.982605,207.563690 
	C267.115234,206.962936 267.186523,206.726913 267.257812,206.490875 
z" />
	<path
		fill="#060C06"
		opacity="1.000000"
		stroke="none"
		d="
M242.637177,185.372559 
	C241.858231,185.678818 240.830490,185.813858 239.416199,185.880035 
	C240.149231,185.607895 241.268814,185.404617 242.637177,185.372559 
z" />
	<path
		fill="#060C06"
		opacity="1.000000"
		stroke="none"
		d="
M266.909210,201.662476 
	C266.725525,201.642654 266.521484,201.198334 266.523071,200.578644 
	C266.782104,200.681488 266.835449,200.959747 266.909210,201.662476 
z" />
	<path
		fill="#060C06"
		opacity="1.000000"
		stroke="none"
		d="
M245.899231,185.620667 
	C245.980164,185.751953 245.497253,185.811951 245.273331,185.716949 
	C245.273438,185.321701 245.529739,185.277496 245.899231,185.620667 
z" />
	<path
		fill="#050505"
		opacity="1.000000"
		stroke="none"
		d="
M126.376122,123.303986 
	C126.475975,121.389465 126.575348,119.941345 126.714981,117.906494 
	C133.379486,118.295784 139.739151,118.135078 145.908829,119.140335 
	C158.115753,121.129272 165.113510,129.113266 167.754272,140.787582 
	C170.390533,152.441910 170.255875,164.237793 167.420700,175.880585 
	C164.217957,189.032791 155.985672,197.065338 142.396606,198.743744 
	C137.339493,199.368362 132.140549,198.844788 126.375641,198.844788 
	C126.375641,173.870010 126.375641,148.820206 126.376122,123.303986 
z" />
	<path
		fill="#86AA4D"
		opacity="1.000000"
		stroke="none"
		d="
M266.234253,217.208832 
	C265.040039,219.709564 263.845856,222.210297 262.327454,224.859344 
	C262.003235,225.007645 261.919769,224.940247 261.946808,224.578522 
	C263.254700,221.769028 260.819092,217.298782 266.009399,217.006058 
	C266.083893,217.074173 266.234253,217.208832 266.234253,217.208832 
z" />
	<path
		fill="#86AA4D"
		opacity="1.000000"
		stroke="none"
		d="
M266.921082,210.918930 
	C266.948639,211.709335 266.976196,212.499741 267.021729,213.686783 
	C266.941528,214.976852 266.843384,215.870270 266.489746,216.986267 
	C266.234253,217.208832 266.083893,217.074173 266.021179,216.608215 
	C266.279297,214.401138 266.600189,212.660034 266.921082,210.918930 
z" />
	<path
		fill="#86AA4D"
		opacity="1.000000"
		stroke="none"
		d="
M262.042450,225.044220 
	C261.906189,225.357162 261.730713,225.633530 261.316040,225.993835 
	C261.076843,226.077789 260.999786,225.993240 261.085022,225.746140 
	C261.369263,225.244629 261.619110,225.058365 261.919769,224.940247 
	C261.919769,224.940247 262.003235,225.007645 262.042450,225.044220 
z" />
	<path
		fill="#84A44C"
		opacity="1.000000"
		stroke="none"
		d="
M261.147766,193.903656 
	C261.620972,194.204468 262.024445,194.544357 262.528076,195.130188 
	C262.628265,195.376099 262.316498,195.711914 261.908508,195.693069 
	C261.316620,195.128510 261.132660,194.582779 260.948730,194.037064 
	C260.948730,194.037064 261.077972,193.942764 261.147766,193.903656 
z" />
	<path
		fill="#86BC25"
		opacity="1.000000"
		stroke="none"
		d="
M260.643982,194.066467 
	C261.132660,194.582779 261.316620,195.128510 261.737518,195.845566 
	C263.122284,198.546997 264.270111,201.077072 265.721375,204.126053 
	C266.382477,205.126694 266.740143,205.608444 267.097839,206.090179 
	C267.097839,206.090179 267.276062,206.254288 267.266937,206.372589 
	C267.186523,206.726913 267.115234,206.962936 266.827271,207.678665 
	C266.714569,208.466537 266.818481,208.774719 266.922363,209.082916 
	C266.923340,209.491486 266.924316,209.900070 266.923157,210.613785 
	C266.600189,212.660034 266.279297,214.401138 265.946655,216.540100 
	C260.819092,217.298782 263.254700,221.769028 261.946808,224.578522 
	C261.619110,225.058365 261.369263,225.244629 261.049500,225.701294 
	C255.652786,227.757355 250.416367,229.735519 245.089828,231.430481 
	C239.618622,233.171463 235.167099,230.854294 230.954086,227.545486 
	C229.487640,226.393768 227.586441,225.795563 225.514709,224.912964 
	C224.238708,221.890442 223.647827,218.754486 222.356064,215.940231 
	C220.000351,210.808121 221.745041,206.134171 223.988708,201.167511 
	C230.540634,198.914383 232.394547,196.271011 230.990860,191.993622 
	C237.295074,185.792175 244.762314,187.570801 251.973053,189.352615 
	C253.878403,189.823425 255.136749,192.557388 256.959839,193.884460 
	C257.729675,194.444839 259.191772,194.054214 260.643982,194.066467 
z" />
	<path
		fill="#86B92E"
		opacity="1.000000"
		stroke="none"
		d="
M230.696503,192.122192 
	C232.394547,196.271011 230.540634,198.914383 224.316040,200.963379 
	C224.289764,199.148926 224.638214,197.347748 224.952667,195.139282 
	C224.997772,194.561951 225.076859,194.391907 225.425018,193.993744 
	C225.694092,193.765610 225.919846,193.561737 225.919846,193.561737 
	C225.919846,193.561737 226.099594,193.233994 226.525269,193.134583 
	C227.295898,193.022598 227.640869,193.010010 227.985840,192.997437 
	C228.791275,192.748550 229.596695,192.499664 230.696503,192.122192 
z" />
	<path
		fill="#83A648"
		opacity="1.000000"
		stroke="none"
		d="
M227.967026,192.674103 
	C227.640869,193.010010 227.295898,193.022598 226.694443,193.055161 
	C226.747528,192.679398 227.057098,192.283630 227.621735,191.797455 
	C227.900589,191.921616 227.924393,192.136200 227.967026,192.674103 
z" />
	<path
		fill="#83A648"
		opacity="1.000000"
		stroke="none"
		d="
M225.791870,193.478836 
	C225.919846,193.561737 225.694092,193.765610 225.632004,193.803223 
	C225.569916,193.840851 225.410645,193.619308 225.386414,193.485413 
	C225.362198,193.351501 225.663895,193.395935 225.791870,193.478836 
z" />
	<path
		fill="#86AA4D"
		opacity="1.000000"
		stroke="none"
		d="
M267.105927,205.737076 
	C266.740143,205.608444 266.382477,205.126694 265.988190,204.333633 
	C265.951599,204.022308 266.392700,204.008072 266.613342,204.006577 
	C266.927338,204.464706 267.020691,204.924347 267.105927,205.737076 
z" />
	<path
		fill="#86AA4D"
		opacity="1.000000"
		stroke="none"
		d="
M266.937836,208.794281 
	C266.818481,208.774719 266.714569,208.466537 266.765961,208.043396 
	C266.931915,208.120819 266.942596,208.313232 266.937836,208.794281 
z" />
</svg>
