<svg version="1.1" id="Layer_1" xmlns="http://www.w3.org/2000/svg" xmlns:xlink="http://www.w3.org/1999/xlink" x="0px" y="0px" width="100%" viewBox="0 0 1024 1024" enable-background="new 0 0 1024 1024" xml:space="preserve">
	<path
		fill="#000000"
		opacity="1.000000"
		stroke="none"
		d="
M748.773376,486.256409 
	C758.748352,499.608124 767.158630,513.600281 776.866760,526.730164 
	C780.757996,531.992859 783.660522,538.389099 787.775879,543.667725 
	C797.404358,556.018066 805.052246,569.695007 814.271118,582.349182 
	C821.195251,591.853577 828.589600,601.383789 833.666565,612.270508 
	C835.206421,615.572510 837.873352,618.397949 840.164551,621.190674 
	C847.161865,629.719788 851.965271,639.633362 858.405579,648.495667 
	C866.586731,659.753357 874.823730,671.020203 882.163086,682.826233 
	C890.096130,695.587280 898.934387,707.746399 907.037781,720.387878 
	C911.652527,727.586975 916.095093,735.323730 922.136536,741.668945 
	C924.312500,743.954285 924.407532,747.050903 926.276245,749.429504 
	C924.111633,750.791748 922.073303,750.296387 920.156372,750.297363 
	C857.491577,750.330139 794.826782,750.290649 732.162170,750.399780 
	C728.376831,750.406372 726.208069,749.349060 724.395081,745.898376 
	C719.773010,737.100952 713.295898,729.404358 708.341125,720.855042 
	C701.130554,708.413330 692.174927,697.140137 685.203125,684.547424 
	C681.655457,678.139282 676.372192,672.708740 672.601990,666.400879 
	C670.389954,662.699951 666.732239,659.671936 666.358398,654.894531 
	C666.289001,654.007996 665.514282,653.088623 664.875305,652.348145 
	C656.375061,642.499023 651.564209,630.069397 643.326355,620.253723 
	C636.347900,611.938660 632.539612,601.895935 625.747070,593.466003 
	C619.972107,586.299011 615.335510,577.806641 610.827942,569.536438 
	C606.867004,562.269226 600.948364,556.356750 597.095398,549.050720 
	C591.653931,538.732666 583.827332,529.969055 577.926880,520.019592 
	C572.204163,510.369812 565.166626,501.581055 559.702026,491.918915 
	C554.525146,482.765625 547.769287,474.700592 542.877563,465.513000 
	C535.654358,451.946289 524.945129,440.642456 518.374329,426.733704 
	C516.618103,423.016235 513.435486,421.600189 509.669250,419.940521 
	C505.321533,426.585785 501.307220,433.556732 496.478302,439.908295 
	C489.064636,449.659637 483.972321,460.828674 476.630829,470.660065 
	C469.597565,480.078705 464.001862,490.562653 457.633179,500.487854 
	C449.400574,513.317810 440.286377,525.648499 432.936371,538.958740 
	C426.363373,550.861816 417.091858,560.904053 411.234680,573.295715 
	C407.805664,580.550293 402.460266,586.993042 397.409851,593.350464 
	C394.571289,596.923584 393.321289,601.180847 390.788116,604.902527 
	C381.396515,618.700439 372.739716,632.996521 363.701111,647.037292 
	C357.183136,657.162476 350.369934,667.098877 343.928101,677.271301 
	C339.086670,684.916443 335.450500,693.473816 329.797211,700.420105 
	C321.875854,710.153198 317.395782,721.983643 309.225616,731.511108 
	C305.621094,735.714478 303.311737,741.039368 300.489594,745.898865 
	C298.654785,749.058167 296.224731,750.405823 292.366669,750.397888 
	C229.702164,750.268860 167.037323,750.292847 104.372566,750.256897 
	C102.758743,750.255920 101.040840,750.649902 99.354752,749.422119 
	C100.016098,745.644409 101.933205,742.463867 104.461418,739.598511 
	C109.615318,733.757263 112.427498,726.256592 118.041374,720.691406 
	C119.725349,719.021973 120.483574,716.404053 121.614609,714.194397 
	C125.113312,707.359192 130.900162,702.105469 134.573532,695.391479 
	C142.126511,681.586487 152.121231,669.381714 160.440247,656.042664 
	C167.209549,645.188354 174.991745,634.837769 181.991348,624.062439 
	C185.983719,617.916443 191.036606,612.528870 194.186508,605.741577 
	C197.760300,598.040955 204.238571,592.212463 208.693115,584.979431 
	C219.694061,567.116821 232.230316,550.255371 243.700974,532.716003 
	C253.115768,518.320312 263.000153,504.228973 272.093903,489.612396 
	C279.675476,477.426300 287.254913,465.147339 295.997803,453.805695 
	C302.371857,445.536957 307.689056,436.599548 313.666809,428.120361 
	C321.807831,416.572540 329.915924,404.890717 337.354675,392.883209 
	C346.837616,377.576141 357.475708,363.090057 367.250427,348.007263 
	C377.352997,332.418579 387.664276,316.964874 397.930542,301.482849 
	C399.481049,299.144531 401.797943,297.194458 402.877228,294.684967 
	C406.975983,285.154877 414.055939,283.360748 423.966858,283.441071 
	C484.794403,283.934052 545.627930,283.729889 606.459229,283.604584 
	C610.805176,283.595612 613.495178,284.562805 615.291748,288.862732 
	C617.659485,294.529846 622.269043,298.809479 625.947144,303.661865 
	C627.032410,305.093689 628.356628,306.394836 629.190674,307.958893 
	C637.307251,323.180573 648.136841,336.622314 657.436218,351.068359 
	C665.097229,362.969391 673.083069,374.683197 681.418213,386.120514 
	C686.763184,393.454865 690.517883,401.808838 696.302490,408.779968 
	C705.032227,419.300476 710.668701,431.884674 719.385315,442.443878 
	C725.051880,449.308105 728.074951,458.176483 734.203918,464.696320 
	C740.200562,471.075439 742.866455,479.504883 748.773376,486.256409 
z" />
</svg>
